<svg width="94" height="69" viewBox="0 0 94 69" fill="none" xmlns="http://www.w3.org/2000/svg">
<path d="M-0.00369715 0.83636C-0.0036984 0.374445 0.509225 -1.1167e-05 1.14195 -1.02505e-05L11.4528 -1.07088e-05C12.0855 -9.86277e-06 12.5984 0.374445 12.5984 0.836361C12.5984 1.29828 12.0855 1.67273 11.4528 1.67273L2.2876 1.67273L2.2876 8.36369C2.2876 8.82561 1.77467 9.20007 1.14195 9.20006C0.509226 9.20006 -0.00369662 8.82561 -0.00369778 8.36369L-0.00369715 0.83636ZM93.1929 68.0374L92.3828 68.6288L0.331856 1.42776L1.14195 0.836361L1.95204 0.244957L94.003 67.446L93.1929 68.0374Z" fill="#CACACA"/>
</svg>
