<svg width="20" height="20" viewBox="0 0 20 20" fill="none" xmlns="http://www.w3.org/2000/svg">
<path d="M10 2.5C6.90186 2.5 4.375 5.02686 4.375 8.125C4.375 9.32373 4.90234 10.5664 5.625 11.6797C6.16211 12.5073 6.8042 13.269 7.5 13.8477V15.625C7.5 16.3086 8.06641 16.875 8.75 16.875L9.375 17.5H10.625L11.25 16.875C11.9336 16.875 12.5 16.3086 12.5 15.625V13.8477C13.1958 13.269 13.8379 12.5073 14.375 11.6797C15.0977 10.5664 15.625 9.32373 15.625 8.125C15.625 5.02686 13.0981 2.5 10 2.5ZM10 3.75C12.4243 3.75 14.375 5.70068 14.375 8.125C14.375 8.94287 13.9722 10.022 13.3398 10.9961C12.7759 11.8652 12.0337 12.6392 11.3477 13.125H8.65234C7.96631 12.6392 7.22412 11.8652 6.66016 10.9961C6.02783 10.022 5.625 8.94287 5.625 8.125C5.625 5.70068 7.57568 3.75 10 3.75ZM8.90625 14.375H11.0938C11.1426 14.4092 11.1938 14.4336 11.25 14.4531V15.625H8.75V14.4531C8.80615 14.4336 8.85742 14.4092 8.90625 14.375Z" fill="#F5F5F5"/>
</svg>
