<svg width="24" height="24" viewBox="0 0 24 24" fill="none" xmlns="http://www.w3.org/2000/svg">
<path d="M17.6482 14.8055C17.6482 14.8822 17.5936 14.9453 17.5195 14.9581L13.1491 15.6782C12.0258 15.864 11.1462 16.7427 10.9605 17.8668L10.2403 22.2372C10.2275 22.3114 10.1636 22.3659 10.0877 22.3659C10.011 22.3659 9.94798 22.3114 9.93519 22.2372L9.21502 17.8668C9.02922 16.7435 8.15053 15.864 7.02644 15.6782L2.65604 14.9581C2.58189 14.9453 2.52734 14.8814 2.52734 14.8055C2.52734 14.7288 2.58189 14.6657 2.65604 14.653L7.02644 13.9328C8.14972 13.747 9.02928 12.8683 9.21502 11.7442L9.93519 7.3738C9.94798 7.29966 10.0119 7.24511 10.0877 7.24511C10.1645 7.24511 10.2275 7.29966 10.2403 7.3738L10.9605 11.7442C11.1463 12.8675 12.025 13.747 13.1491 13.9328L17.5195 14.653C17.5936 14.6657 17.6482 14.7297 17.6482 14.8055ZM21.3402 5.34101L19.1558 4.98136C18.6257 4.89442 18.2132 4.47936 18.1262 3.9518L17.7666 1.76736C17.7538 1.69322 17.6899 1.63867 17.614 1.63867C17.5373 1.63867 17.4743 1.69322 17.4615 1.76736L17.1018 3.9518C17.0149 4.48192 16.5998 4.89441 16.0723 4.98136L13.8878 5.34101C13.8137 5.35379 13.7591 5.41771 13.7591 5.49357C13.7591 5.57027 13.8137 5.63334 13.8878 5.64612L16.0723 6.00577C16.6024 6.09271 17.0149 6.50777 17.1018 7.03533L17.4615 9.21977C17.4743 9.29391 17.5382 9.34846 17.614 9.34846C17.6907 9.34846 17.7538 9.29391 17.7666 9.21977L18.1262 7.03533C18.2132 6.50521 18.6282 6.09272 19.1558 6.00577L21.3402 5.64612C21.4144 5.63334 21.4689 5.56942 21.4689 5.49357C21.4689 5.41686 21.4144 5.35379 21.3402 5.34101Z" fill="#414141"/>
</svg>
