<svg width="24" height="24" viewBox="0 0 24 24" fill="none" xmlns="http://www.w3.org/2000/svg">
<path d="M17.6482 14.8056C17.6482 14.8823 17.5936 14.9454 17.5195 14.9582L13.1491 15.6783C12.0258 15.8641 11.1462 16.7428 10.9605 17.8669L10.2403 22.2373C10.2275 22.3115 10.1636 22.366 10.0877 22.366C10.011 22.366 9.94798 22.3115 9.93519 22.2373L9.21502 17.8669C9.02922 16.7436 8.15053 15.8641 7.02644 15.6783L2.65604 14.9582C2.58189 14.9454 2.52734 14.8815 2.52734 14.8056C2.52734 14.7289 2.58189 14.6658 2.65604 14.6531L7.02644 13.9329C8.14972 13.7471 9.02928 12.8684 9.21502 11.7443L9.93519 7.3739C9.94798 7.29975 10.0119 7.2452 10.0877 7.2452C10.1645 7.2452 10.2275 7.29975 10.2403 7.3739L10.9605 11.7443C11.1463 12.8676 12.025 13.7471 13.1491 13.9329L17.5195 14.6531C17.5936 14.6658 17.6482 14.7298 17.6482 14.8056ZM21.3402 5.3411L19.1558 4.98145C18.6257 4.89452 18.2132 4.47946 18.1262 3.95189L17.7666 1.76746C17.7538 1.69331 17.6899 1.63876 17.614 1.63876C17.5373 1.63876 17.4743 1.69331 17.4615 1.76746L17.1018 3.95189C17.0149 4.48201 16.5998 4.8945 16.0723 4.98145L13.8878 5.3411C13.8137 5.35388 13.7591 5.4178 13.7591 5.49366C13.7591 5.57036 13.8137 5.63343 13.8878 5.64621L16.0723 6.00586C16.6024 6.0928 17.0149 6.50786 17.1018 7.03542L17.4615 9.21986C17.4743 9.294 17.5382 9.34855 17.614 9.34855C17.6907 9.34855 17.7538 9.294 17.7666 9.21986L18.1262 7.03542C18.2132 6.5053 18.6282 6.09281 19.1558 6.00586L21.3402 5.64621C21.4144 5.63343 21.4689 5.56951 21.4689 5.49366C21.4689 5.41695 21.4144 5.35388 21.3402 5.3411Z" fill="#414141"/>
</svg>
