<svg width="16" height="16" viewBox="0 0 16 16" fill="none" xmlns="http://www.w3.org/2000/svg">
<g clip-path="url(#clip0_5878_35975)">
<path d="M9.9987 3.92065L9.33203 6.66732H13.2187C13.6384 6.66732 14.0336 6.86491 14.2854 7.20065C14.5372 7.53639 14.6162 7.9711 14.4987 8.37398L12.9454 13.7073C12.7794 14.2762 12.258 14.6673 11.6654 14.6673H2.66536C1.92948 14.6673 1.33203 14.0699 1.33203 13.334V8.00065C1.33203 7.26476 1.92948 6.66732 2.66536 6.66732H4.50536C5.01133 6.66705 5.47354 6.38042 5.6987 5.92732L7.9987 1.33398C8.6356 1.34187 9.23402 1.64022 9.62363 2.14412C10.0132 2.64802 10.1514 3.30227 9.9987 3.92065M4.66536 6.66732V14.6673" stroke="#464646" stroke-width="1.33333" stroke-linecap="round" stroke-linejoin="round"/>
</g>
<defs>
<clipPath id="clip0_5878_35975">
<rect width="16" height="16" fill="white"/>
</clipPath>
</defs>
</svg>
