<svg width="365" height="38" viewBox="0 0 365 38" fill="none" xmlns="http://www.w3.org/2000/svg">
<path d="M19 1H346C355.941 1 364 9.05887 364 19C364 28.9411 355.941 37 346 37H19C9.05888 37 1 28.9411 1 19C1 9.05887 9.05887 1 19 1Z" stroke="black" stroke-width="2"/>
<path d="M99.728 24V14.2H104.81C107.61 14.2 109.108 15.194 109.108 17.014C109.108 18.148 108.506 18.96 107.442 19.296C108.618 19.576 109.206 20.36 109.262 21.746L109.332 24H106.952L106.882 22.138C106.854 20.99 106.266 20.5 104.908 20.5H102.01V24H99.728ZM104.67 18.834C105.986 18.834 106.728 18.288 106.728 17.35C106.728 16.44 106 15.908 104.726 15.908H102.01V18.834H104.67ZM111.443 24V14.2H119.787V16.02H113.725V18.204H119.227V19.926H113.725V22.138H119.871V24H111.443ZM121.549 24L126.015 14.2H128.885L133.365 24H130.929L129.851 21.578H124.993L123.915 24H121.549ZM125.749 19.898H129.095L127.429 16.146L125.749 19.898ZM135.16 24V14.2H139.794C143.784 14.2 145.856 15.88 145.856 19.1C145.856 22.32 143.784 24 139.794 24H135.16ZM139.696 22.124C142.202 22.124 143.518 21.074 143.518 19.1C143.518 17.126 142.202 16.076 139.696 16.076H137.442V22.124H139.696ZM151.02 24L155.486 14.2H158.356L162.836 24H160.4L159.322 21.578H154.464L153.386 24H151.02ZM155.22 19.898H158.566L156.9 16.146L155.22 19.898ZM164.63 24V14.2H166.912V22.054H172.274V24H164.63ZM174.13 24V14.2H176.412V22.054H181.774V24H174.13ZM187.224 24V14.2H192.306C195.106 14.2 196.604 15.194 196.604 17.014C196.604 18.148 196.002 18.96 194.938 19.296C196.114 19.576 196.702 20.36 196.758 21.746L196.828 24H194.448L194.378 22.138C194.35 20.99 193.762 20.5 192.404 20.5H189.506V24H187.224ZM192.166 18.834C193.482 18.834 194.224 18.288 194.224 17.35C194.224 16.44 193.496 15.908 192.222 15.908H189.506V18.834H192.166ZM198.939 24V14.2H207.283V16.02H201.221V18.204H206.723V19.926H201.221V22.138H207.367V24H198.939ZM213.513 24L208.949 14.2H211.497L214.829 21.62L218.161 14.2H220.639L216.075 24H213.513ZM222.437 24V14.2H224.719V24H222.437ZM226.919 24V14.2H235.263V16.02H229.201V18.204H234.703V19.926H229.201V22.138H235.347V24H226.919ZM240.217 24L237.053 14.2H239.559L241.743 21.508L244.137 14.2H246.811L249.233 21.508L251.417 14.2H253.867L250.675 24H247.959L245.467 16.58L242.975 24H240.217ZM259.965 24.28C256.857 24.28 254.869 22.866 254.827 20.626H257.095C257.151 21.872 258.243 22.53 260.021 22.53C261.449 22.53 262.303 22.138 262.303 21.396C262.303 20.78 261.771 20.388 260.805 20.262L258.411 19.94C256.521 19.702 255.219 18.722 255.219 17.042C255.219 15.11 256.927 13.92 259.657 13.92C262.499 13.92 264.277 15.25 264.347 17.378H262.107C262.051 16.23 261.085 15.642 259.615 15.642C258.299 15.642 257.501 16.048 257.501 16.79C257.501 17.392 257.991 17.756 258.873 17.882L261.099 18.162C263.577 18.484 264.669 19.73 264.669 21.228C264.669 23.16 262.849 24.28 259.965 24.28Z" fill="black"/>
</svg>
