<svg width="219" height="46" viewBox="0 0 219 46" fill="none" xmlns="http://www.w3.org/2000/svg">
<path d="M0 23C0 10.2975 10.2975 0 23 0H196C208.703 0 219 10.2975 219 23C219 35.7025 208.703 46 196 46H23C10.2975 46 0 35.7025 0 23Z" fill="#BC0F0F"/>
<path d="M32.886 28L28.322 18.2H30.87L34.202 25.62L37.534 18.2H40.012L35.448 28H32.886ZM41.81 28V18.2H44.092V28H41.81ZM46.2925 28V18.2H54.6365V20.02H48.5745V22.204H54.0765V23.926H48.5745V26.138H54.7205V28H46.2925ZM59.5898 28L56.4258 18.2H58.9318L61.1158 25.508L63.5098 18.2H66.1838L68.6058 25.508L70.7898 18.2H73.2398L70.0478 28H67.3318L64.8398 20.58L62.3478 28H59.5898ZM78.5932 28V18.2H83.6752C86.4752 18.2 87.9732 19.194 87.9732 21.014C87.9732 22.148 87.3712 22.96 86.3072 23.296C87.4832 23.576 88.0712 24.36 88.1272 25.746L88.1972 28H85.8172L85.7472 26.138C85.7192 24.99 85.1312 24.5 83.7732 24.5H80.8752V28H78.5932ZM83.5352 22.834C84.8512 22.834 85.5932 22.288 85.5932 21.35C85.5932 20.44 84.8652 19.908 83.5912 19.908H80.8752V22.834H83.5352ZM90.3081 28V18.2H98.6521V20.02H92.5901V22.204H98.0921V23.926H92.5901V26.138H98.7361V28H90.3081ZM105.5 28.28C102.392 28.28 100.404 26.866 100.362 24.626H102.63C102.686 25.872 103.778 26.53 105.556 26.53C106.984 26.53 107.838 26.138 107.838 25.396C107.838 24.78 107.306 24.388 106.34 24.262L103.946 23.94C102.056 23.702 100.754 22.722 100.754 21.042C100.754 19.11 102.462 17.92 105.192 17.92C108.034 17.92 109.812 19.25 109.882 21.378H107.642C107.586 20.23 106.62 19.642 105.15 19.642C103.834 19.642 103.036 20.048 103.036 20.79C103.036 21.392 103.526 21.756 104.408 21.882L106.634 22.162C109.112 22.484 110.204 23.73 110.204 25.228C110.204 27.16 108.384 28.28 105.5 28.28ZM116.983 28.28C113.567 28.28 112.041 26.866 112.041 23.716V18.2H114.365V23.534C114.365 25.48 115.191 26.362 116.997 26.362C118.831 26.362 119.671 25.48 119.671 23.534V18.2H121.939V23.716C121.939 26.866 120.399 28.28 116.983 28.28ZM124.072 28V18.2H126.354V26.054H131.716V28H124.072ZM134.383 28V20.16H130.939V18.2H140.151V20.16H136.707V28H134.383ZM146.576 28.28C143.468 28.28 141.48 26.866 141.438 24.626H143.706C143.762 25.872 144.854 26.53 146.632 26.53C148.06 26.53 148.914 26.138 148.914 25.396C148.914 24.78 148.382 24.388 147.416 24.262L145.022 23.94C143.132 23.702 141.83 22.722 141.83 21.042C141.83 19.11 143.538 17.92 146.268 17.92C149.11 17.92 150.888 19.25 150.958 21.378H148.718C148.662 20.23 147.696 19.642 146.226 19.642C144.91 19.642 144.112 20.048 144.112 20.79C144.112 21.392 144.602 21.756 145.484 21.882L147.71 22.162C150.188 22.484 151.28 23.73 151.28 25.228C151.28 27.16 149.46 28.28 146.576 28.28ZM161.654 30.338C158.644 29.918 156.768 27.496 156.768 24.08C156.768 20.664 158.644 18.242 161.654 17.822V19.502C159.834 19.964 158.7 21.728 158.7 24.08C158.7 26.432 159.834 28.196 161.654 28.658V30.338ZM163.406 28V26.362L167.62 23.702C168.838 22.918 169.706 22.246 169.706 21.266C169.706 20.328 168.936 19.698 167.83 19.698C166.612 19.698 165.758 20.496 165.716 21.7H163.49C163.532 19.404 165.268 17.92 167.914 17.92C170.364 17.92 171.988 19.166 171.988 21.07C171.988 22.694 170.84 23.73 169.258 24.654L166.584 26.236H171.988V28H163.406ZM173.931 28V26.362L178.145 23.702C179.363 22.918 180.231 22.246 180.231 21.266C180.231 20.328 179.461 19.698 178.355 19.698C177.137 19.698 176.283 20.496 176.241 21.7H174.015C174.057 19.404 175.793 17.92 178.439 17.92C180.889 17.92 182.513 19.166 182.513 21.07C182.513 22.694 181.365 23.73 179.783 24.654L177.109 26.236H182.513V28H173.931ZM184.36 28.658C186.18 28.196 187.314 26.432 187.314 24.08C187.314 21.728 186.18 19.964 184.36 19.502V17.822C187.37 18.242 189.246 20.664 189.246 24.08C189.246 27.496 187.37 29.918 184.36 30.338V28.658Z" fill="white"/>
</svg>
